<svg id="call" xmlns="http://www.w3.org/2000/svg" width="24.149" height="24.149" viewBox="0 0 24.149 24.149">
  <path id="Vector" d="M16.3,21.633a9.205,9.205,0,0,1-3.572-.795,18.892,18.892,0,0,1-3.612-2.073,31.408,31.408,0,0,1-3.391-2.888A30.061,30.061,0,0,1,2.837,12.5,18.777,18.777,0,0,1,.785,8.915,9.316,9.316,0,0,1,0,5.323,6.063,6.063,0,0,1,.413,3.1,5.374,5.374,0,0,1,1.761,1.147,3.654,3.654,0,0,1,4.367,0,2.721,2.721,0,0,1,5.5.252a2.3,2.3,0,0,1,.966.815L8.8,4.357a3.9,3.9,0,0,1,.483.855,2.26,2.26,0,0,1,.2.9,2.135,2.135,0,0,1-.322,1.107,4.025,4.025,0,0,1-.674.855l-.684.714a.49.49,0,0,0,.03.07,7.738,7.738,0,0,0,.825,1.117c.493.563.956,1.077,1.419,1.55.594.584,1.087,1.046,1.55,1.429a6.553,6.553,0,0,0,1.167.835l-.02.05.735-.724a3.758,3.758,0,0,1,.906-.694,2.124,2.124,0,0,1,1.962-.111,4.581,4.581,0,0,1,.845.473l3.341,2.375a2.162,2.162,0,0,1,.8.956,2.912,2.912,0,0,1,.221,1.087,3.356,3.356,0,0,1-.322,1.419,4.686,4.686,0,0,1-.8,1.207A5.161,5.161,0,0,1,18.544,21.2,5.941,5.941,0,0,1,16.3,21.633ZM4.367,1.509a2.206,2.206,0,0,0-1.56.724,3.86,3.86,0,0,0-.986,1.419,4.4,4.4,0,0,0-.312,1.67,7.758,7.758,0,0,0,.664,3A16.8,16.8,0,0,0,4.065,11.6a27.838,27.838,0,0,0,2.727,3.2A28.331,28.331,0,0,0,10,17.538a16.348,16.348,0,0,0,3.31,1.9,6,6,0,0,0,4.659.352,3.715,3.715,0,0,0,1.378-1,3.263,3.263,0,0,0,.563-.845,1.783,1.783,0,0,0,.181-.775,1.2,1.2,0,0,0-.111-.5.761.761,0,0,0-.282-.3L16.361,14a2.885,2.885,0,0,0-.553-.312.529.529,0,0,0-.654.03,2.294,2.294,0,0,0-.584.453l-.765.755a1.434,1.434,0,0,1-1.459.3l-.272-.121a8.577,8.577,0,0,1-1.429-1.016c-.483-.413-1.006-.9-1.64-1.519-.493-.5-.986-1.036-1.5-1.63A8.585,8.585,0,0,1,6.48,9.519l-.121-.3a1.878,1.878,0,0,1-.08-.5,1.291,1.291,0,0,1,.382-.936l.755-.785a2.914,2.914,0,0,0,.453-.563.645.645,0,0,0,.111-.342.935.935,0,0,0-.08-.322,2.887,2.887,0,0,0-.322-.533l-2.334-3.3A.927.927,0,0,0,4.87,1.62,1.26,1.26,0,0,0,4.367,1.509Zm8.412,12.336-.161.684.272-.7A.124.124,0,0,0,12.779,13.845Z" transform="translate(1.258 1.258)" fill="#fff"/>
  <path id="Vector-2" data-name="Vector" d="M0,0H24.149V24.149H0Z" fill="none" opacity="0"/>
</svg>
