<svg xmlns="http://www.w3.org/2000/svg" width="24" height="24" viewBox="0 0 24 24">
  <g id="vuesax_outline_like" data-name="vuesax/outline/like" transform="translate(-300 -188)">
    <g id="like">
      <path id="Vector" d="M9.42,20.2H5.62a3.819,3.819,0,0,1-2.43-.82L.16,17.042l.92-1.19,3.1,2.4a2.392,2.392,0,0,0,1.44.44h3.8a2.268,2.268,0,0,0,2.07-1.53l2.42-7.35a1.191,1.191,0,0,0-.08-1.13,1.317,1.317,0,0,0-1.11-.49h-4a1.751,1.751,0,0,1-1.33-.6,1.784,1.784,0,0,1-.41-1.45l.5-3.21a1.244,1.244,0,0,0-.8-1.37,1.272,1.272,0,0,0-1.34.4l-4.1,6.1L0,7.232l4.1-6.1a2.708,2.708,0,0,1,4.86,2.09l-.49,3.15a.3.3,0,0,0,.06.25.279.279,0,0,0,.2.08h4a2.783,2.783,0,0,1,2.33,1.12,2.665,2.665,0,0,1,.27,2.48l-2.39,7.28A3.727,3.727,0,0,1,9.42,20.2Z" transform="translate(306.86 189.898)" fill="#b7becc"/>
      <path id="Vector-2" data-name="Vector" d="M3.75,15.1h-1C.9,15.1,0,14.23,0,12.45V2.65C0,.87.9,0,2.75,0h1C5.6,0,6.5.87,6.5,2.65v9.8C6.5,14.23,5.6,15.1,3.75,15.1Zm-1-13.6c-1.09,0-1.25.26-1.25,1.15v9.8c0,.89.16,1.15,1.25,1.15h1C4.84,13.6,5,13.34,5,12.45V2.65C5,1.76,4.84,1.5,3.75,1.5Z" transform="translate(301.63 193.9)" fill="#b7becc"/>
      <path id="Vector-3" data-name="Vector" d="M0,0H24V24H0Z" transform="translate(300 188)" fill="none" opacity="0"/>
    </g>
  </g>
</svg>
