<svg id="vuesax_outline_map" data-name="vuesax/outline/map" xmlns="http://www.w3.org/2000/svg" width="21.002" height="21.002" viewBox="0 0 21.002 21.002">
  <g id="map">
    <path id="Vector" d="M12.348,16.475a2.47,2.47,0,0,1-1.059-.228l-4.594-2.3a1.322,1.322,0,0,0-1.033.026L3.6,15.153a2.478,2.478,0,0,1-2.5.166A2.476,2.476,0,0,1,0,13.062V4.556A2.589,2.589,0,0,1,1.216,2.464L5.006.294A2.578,2.578,0,0,1,7.272.233l4.594,2.3A1.362,1.362,0,0,0,12.9,2.508l2.056-1.173a2.478,2.478,0,0,1,2.5-.166,2.476,2.476,0,0,1,1.094,2.258v8.515a2.589,2.589,0,0,1-1.216,2.091L13.547,16.2A2.657,2.657,0,0,1,12.348,16.475ZM6.213,12.546a2.47,2.47,0,0,1,1.059.228l4.594,2.3a1.362,1.362,0,0,0,1.033-.026l3.789-2.17a1.3,1.3,0,0,0,.551-.945V3.418a1.222,1.222,0,0,0-.446-1.12,1.265,1.265,0,0,0-1.19.175L13.547,3.646a2.578,2.578,0,0,1-2.267.061l-4.594-2.3a1.362,1.362,0,0,0-1.033.026L1.864,3.6a1.3,1.3,0,0,0-.551.954v8.515a1.24,1.24,0,0,0,.438,1.12,1.259,1.259,0,0,0,1.2-.175l2.056-1.173A2.423,2.423,0,0,1,6.213,12.546Z" transform="translate(1.348 2.261)" fill="#169bd7"/>
    <path id="Vector-2" data-name="Vector" d="M.656,12.689A.661.661,0,0,1,0,12.033V.656A.661.661,0,0,1,.656,0a.661.661,0,0,1,.656.656V12.033A.661.661,0,0,1,.656,12.689Z" transform="translate(6.835 2.844)" fill="#169bd7"/>
    <path id="Vector-3" data-name="Vector" d="M.656,13.022A.661.661,0,0,1,0,12.365V.656A.661.661,0,0,1,.656,0a.661.661,0,0,1,.656.656V12.365A.661.661,0,0,1,.656,13.022Z" transform="translate(13.109 5.137)" fill="#169bd7"/>
    <path id="Vector-4" data-name="Vector" d="M0,0H21V21H0Z" fill="none" opacity="0"/>
  </g>
</svg>
