<svg id="star" xmlns="http://www.w3.org/2000/svg" width="25.907" height="25.907" viewBox="0 0 25.907 25.907">
  <path id="Vector" d="M0,0H25.907V25.907H0Z" fill="none" opacity="0"/>
  <path id="Vector-2" data-name="Vector" d="M10.136,1.24l1.522,3.044a1.9,1.9,0,0,0,1.22.907l2.753.453c1.76.291,2.17,1.565.907,2.839l-2.148,2.148a1.864,1.864,0,0,0-.443,1.565l.615,2.656c.486,2.094-.637,2.915-2.483,1.814L9.5,15.133a1.833,1.833,0,0,0-1.706,0l-2.58,1.533c-1.846,1.09-2.969.281-2.483-1.814L3.346,12.2a1.962,1.962,0,0,0-.464-1.576L.733,8.473C-.53,7.21-.119,5.936,1.64,5.634L4.393,5.18a1.864,1.864,0,0,0,1.22-.907L7.135,1.229C7.966-.412,9.3-.412,10.136,1.24Z" transform="translate(4.318 4.384)" fill="#b7becc"/>
</svg>
